<?xml version="1.0" encoding="UTF-8"?>

<svg version="1.1"
     baseProfile="full"
     width="300" height="200"
     xmlns="http://www.w3.org/2000/svg">
     <defs>
      <linearGradient id="red">
        <stop offset="30%" style="stop-color:#f05;stop-opacity:1;"/>
        <stop offset="100%" style="stop-color:#f01;stop-opacity:1;"/>
      </linearGradient>
      <radialGradient id="green" x1="0%" y1="60%" x2="100%" y2="40%">
        <stop offset="55%" style="stop-color:#175;stop-opacity:1;"/>
        <stop offset="100%" style="stop-color:#080;stop-opacity:1;"/>
      </radialGradient>
      <linearGradient id="cyan" x1="0%" y1="60%" x2="100%" y2="30%">
        <stop offset="0%" style="stop-color:#8ef;stop-opacity:1;"/>
        <stop offset="100%" style="stop-color:#0cf;stop-opacity:1;"/>
      </linearGradient>
      <linearGradient id="orange" x1="0%" y1="80%" x2="100%" y2="30%">
        <stop offset="0%" style="stop-color:#f80;stop-opacity:1;"/>
        <stop offset="90%" style="stop-color:#fa0;stop-opactiy:1;"/>
      </linearGradient>
      <radialGradient id="purple">
        <stop offset="30%" style="stop-color:#a0f;stop-opacity"/>
        <stop offset="90%" style="stop-color:#80f;stop-opacity"/>
      </radialGradient>
      <linearGradient id="hotpink" x1="60%" y1="0%" x2="40%" y2="100%">
        <stop offset="10%" style="stop-color:#f5c;stop-opacity:1"/>
        <stop offset="100%" style="stop-color:#f09;stop-opacity:1"/>
      </linearGradient>
      <linearGradient id="blue" x1="0%" y1="70%" x2="100%" y2="50%">
        <stop offset="0%" style="stop-color:#26f;stop-opacity:1"/>
        <stop offset="80%" style="stop-color:#22f;stop-opacity:1"/>      
      </linearGradient>
     </defs>
     <symbol id="logo-bare" viewBox="0, 0, 115, 100" preserveAspectRatio="midXmidY meet">
      <path d="M 11,0
               v 90
               h 72.5
               a 20,20 0,0,0 0,-40
               a 20,20 0,0,0 0,-40
               h -25
               v 85
               m 0,-45
               h 25" fill="none" stroke="#0a0018" stroke-width="20px"/>
    </symbol>
    <symbol id="logo-backdrop" viewBox="0, 0, 150, 140" preserveAspectRatio="midXmidY meet">
      <path d="M 130,40
               l 20,20
               l -15,20
               l 10,30
               l -45,13
               l -15,-50
               l 20,-30" fill="url(#hotpink)" stroke="none"/>
      <path d="M 10,110
               l 50,30
               l 50,-20
               l -25,-60
               l -50,-10
               z" fill="url(#orange)" stroke="none"/>
      <circle cx="27.5" cy="65" r="22.5" fill="url(#green)" stroke="none"/>
      <path d="M 30,60
               l -30,30
               l 10,20
               l -2.5,20
               l 55,-20
               l 5,-25
               z" fill="url(#cyan)" stroke="none"/>
      <path d="M 30,30
               l 20,-30
               l 20,20
               l 30,-15
               l 15,20
               l -20,50
               l -20,-13
               l -20,12
               z" fill="url(#blue)" stroke="none"/>
      <circle cx="120" cy="30" r="22.5" fill="url(#purple)" stroke="none"/>
      <path d="M 30,2
               l -27.5,30
               l 17.5,30
               l 40,-10
               l 10,-35
               z" fill="url(#red)" stroke="none"/>
      <use href="#logo-bare" x="20" y="20" width="115" height="100"/>
    </symbol>
    <use href="#logo-backdrop"/>
</svg>