<?xml version="1.0" encoding="UTF-8"?>

<svg version="1.1"
     baseProfile="full"
     width="305" height="100"
     xmlns="http://www.w3.org/2000/svg">
  <path d="M 60,10
           l -60,40
           l 60,40
           v -20
           l -30,-20
           l 30,-20" fill="green" stroke="none"/>
  <path d="M 95,0
           l -30,100
           h 20
           l 30,-100
           " fill="green" stroke="none"/>
  <path d="M 125,0
           h 35
           v 80
           h 20
           v 20
           h -60
           v -20
           h 20
           v -60
           h -15" fill="green" stroke="none"/>lb
  <!--<path d="M 185,0
           h 30
           a 20,20 0,0,1 0,40
           h 0
           a 30,30 0 0,1 0,60
           H 185
           z
           M 205,60
           a 12,15 30 1,1 5,25
           h -5" fill="green" stroke="none" fill-rule="evenodd"/>-->
  <path d="M 185,10
           l 60,40
           l -60,40
           v -20
           l 30,-20
           l -30,-20" fill="green" stroke="none"/>
</svg>